<svg xmlns="http://www.w3.org/2000/svg" viewBox="0 0 900 260" role="img" aria-label="Platzbelegung Logo mit Kalender und Fußballfeld">
  <defs>
    <linearGradient id="card" x1="0" x2="0" y1="0" y2="1">
      <stop offset="0%" stop-color="#0a8a44" />
      <stop offset="100%" stop-color="#0a6b36" />
    </linearGradient>
    <linearGradient id="header" x1="0" x2="1" y1="0" y2="0">
      <stop offset="0%" stop-color="#ffb23f" />
      <stop offset="100%" stop-color="#ff8a21" />
    </linearGradient>
    <linearGradient id="field" x1="0" x2="1" y1="0" y2="1">
      <stop offset="0%" stop-color="#1fa451" />
      <stop offset="100%" stop-color="#138c42" />
    </linearGradient>
  </defs>

  <g transform="translate(16 12) scale(0.46)">
    <rect x="32" y="36" width="448" height="440" rx="88" fill="url(#card)" stroke="#0d5c32" stroke-width="6" />
    <rect x="56" y="56" width="400" height="88" rx="32" fill="url(#header)" />
    <circle cx="142" cy="100" r="12" fill="#fff3e0" />
    <circle cx="256" cy="100" r="12" fill="#fff3e0" />
    <circle cx="370" cy="100" r="12" fill="#fff3e0" />

    <rect x="82" y="152" width="348" height="276" rx="36" fill="url(#field)" stroke="#0f6c36" stroke-width="6" />
    <rect x="82" y="192" width="348" height="24" rx="12" fill="#ffffff" opacity="0.18" />
    <rect x="82" y="248" width="348" height="22" rx="11" fill="#ffffff" opacity="0.12" />
    <rect x="82" y="302" width="348" height="22" rx="11" fill="#ffffff" opacity="0.10" />

    <rect x="110" y="182" width="292" height="216" rx="26" fill="none" stroke="#f4fff2" stroke-width="8" />
    <line x1="256" y1="182" x2="256" y2="398" stroke="#f4fff2" stroke-width="7" />
    <circle cx="256" cy="290" r="46" fill="none" stroke="#f4fff2" stroke-width="7" />
    <circle cx="256" cy="290" r="6" fill="#fefefe" />

    <rect x="110" y="236" width="54" height="108" rx="12" fill="none" stroke="#f4fff2" stroke-width="7" />
    <rect x="348" y="236" width="54" height="108" rx="12" fill="none" stroke="#f4fff2" stroke-width="7" />
    <path d="M110 262h28" stroke="#f4fff2" stroke-width="7" stroke-linecap="round" />
    <path d="M402 262h28" stroke="#f4fff2" stroke-width="7" stroke-linecap="round" />

    <rect x="118" y="72" width="80" height="22" rx="8" fill="#fff8ed" opacity="0.92" />
    <rect x="218" y="72" width="80" height="22" rx="8" fill="#fff8ed" opacity="0.92" />
    <rect x="318" y="72" width="80" height="22" rx="8" fill="#fff8ed" opacity="0.92" />

    <rect x="164" y="364" width="76" height="32" rx="10" fill="#ffce6a" stroke="#ffad33" stroke-width="4" />
    <path d="M180 380l12 12 22-26" fill="none" stroke="#7c4a00" stroke-width="6" stroke-linecap="round" stroke-linejoin="round" />
  </g>

  <g transform="translate(270 60)">
    <text x="0" y="62" fill="#0f5d31" font-size="70" font-weight="800" font-family="'Montserrat','Segoe UI','Helvetica Neue',Arial,sans-serif" letter-spacing="-1.2">
      Platzbelegung
    </text>
    <text x="0" y="112" fill="#135f38" font-size="26" font-weight="600" font-family="'Montserrat','Segoe UI','Helvetica Neue',Arial,sans-serif">
      Kalender &amp; Spielfeld im Blick
    </text>
    <rect x="0" y="126" width="330" height="10" rx="5" fill="#ffb23f" opacity="0.75" />
  </g>
</svg>
