<svg xmlns="http://www.w3.org/2000/svg" viewBox="0 0 900 260" role="img" aria-label="Platzbelegung Logo mit Kalender und Fußballfeld">
  <defs>
    <linearGradient id="card" x1="0" x2="0" y1="0" y2="1">
      <stop offset="0%" stop-color="#0a8a44" />
      <stop offset="100%" stop-color="#0a6b36" />
    </linearGradient>
    <linearGradient id="header" x1="0" x2="1" y1="0" y2="0">
      <stop offset="0%" stop-color="#ffb23f" />
      <stop offset="100%" stop-color="#ff8a21" />
    </linearGradient>
    <linearGradient id="field" x1="0" x2="1" y1="0" y2="1">
      <stop offset="0%" stop-color="#1fa451" />
      <stop offset="100%" stop-color="#138c42" />
    </linearGradient>
  </defs>

  <g transform="translate(16 12) scale(0.46)">
    <rect x="32" y="36" width="448" height="440" rx="88" fill="url(#card)" stroke="#0d5c32" stroke-width="6" />
    <rect x="56" y="56" width="400" height="88" rx="32" fill="url(#header)" />
    <circle cx="132" cy="96" r="10" fill="#fff3e0" />
    <circle cx="256" cy="96" r="10" fill="#fff3e0" />
    <circle cx="380" cy="96" r="10" fill="#fff3e0" />
    <rect x="112" y="72" width="288" height="64" rx="18" fill="rgba(255,255,255,0.12)" stroke="rgba(255,255,255,0.2)" stroke-width="3" />
    <path d="M112 102h288" stroke="#fff7ec" stroke-width="3" opacity="0.85" />
    <g stroke="#fff7ec" stroke-width="2.6" opacity="0.82">
      <line x1="168" y1="72" x2="168" y2="136" />
      <line x1="224" y1="72" x2="224" y2="136" />
      <line x1="280" y1="72" x2="280" y2="136" />
      <line x1="336" y1="72" x2="336" y2="136" />
    </g>
    <rect x="132" y="110" width="32" height="18" rx="4" fill="#fff7ec" opacity="0.85" />
    <rect x="206" y="110" width="26" height="18" rx="4" fill="#fff7ec" opacity="0.75" />
    <rect x="262" y="110" width="26" height="18" rx="4" fill="#fff7ec" opacity="0.65" />
    <rect x="318" y="110" width="28" height="18" rx="4" fill="#fff7ec" opacity="0.78" />

    <rect x="82" y="152" width="348" height="276" rx="36" fill="url(#field)" stroke="#0f6c36" stroke-width="6" />

    <rect x="110" y="182" width="292" height="216" rx="26" fill="none" stroke="#f4fff2" stroke-width="8" />
    <line x1="256" y1="182" x2="256" y2="398" stroke="#f4fff2" stroke-width="7" />
    <circle cx="256" cy="290" r="46" fill="none" stroke="#f4fff2" stroke-width="7" />
    <circle cx="256" cy="290" r="6" fill="#fefefe" />

    <rect x="110" y="236" width="54" height="108" rx="12" fill="none" stroke="#f4fff2" stroke-width="7" />
    <rect x="348" y="236" width="54" height="108" rx="12" fill="none" stroke="#f4fff2" stroke-width="7" />
    <path d="M110 262h28" stroke="#f4fff2" stroke-width="7" stroke-linecap="round" />
    <path d="M402 262h28" stroke="#f4fff2" stroke-width="7" stroke-linecap="round" />

  </g>

  <g transform="translate(270 60)">
    <text x="0" y="62" fill="#0f5d31" font-size="70" font-weight="800" font-family="'Montserrat','Segoe UI','Helvetica Neue',Arial,sans-serif" letter-spacing="-1.2">
      Platzbelegung
    </text>
    <text x="0" y="112" fill="#135f38" font-size="26" font-weight="600" font-family="'Montserrat','Segoe UI','Helvetica Neue',Arial,sans-serif">
      Kalender &amp; Spielfeld im Blick
    </text>
    <rect x="0" y="126" width="330" height="10" rx="5" fill="#ffb23f" opacity="0.75" />
  </g>
</svg>
